PathFileType	4	(X/Y/Z)	 control3min.trc
DataRate	CameraRate	NumFrames	NumMarkers	Units	OrigDataRate	OrigDataStartFrame	OrigNumFrames
200	200	9	43	m	200	251	1000
Frame#	Time	C7			LSH			RSH			MAN			RASI			LASI			HIPR			HIPL			RPSI			LPSI			COX			RTHI1			RTHI2			RTHI3			RTHI4			RLKN			RMKN			RSHA1			RSHA2			RSHA3			RSHA4			RLMAL			RMMAL			RHEEL			RMET5			RMET1			RTOE			LTHI1			LTHI2			LTHI3			LTHI4			LLKN			LMKN			LSHA1			LSHA2			LSHA3			LSHA4			LLMAL			LMMAL			LHEEL			LMET5			LMET1			LTOE			
		X1	Y1	Z1	X2	Y2	Z2	X3	Y3	Z3	X4	Y4	Z4	X5	Y5	Z5	X6	Y6	Z6	X7	Y7	Z7	X8	Y8	Z8	X9	Y9	Z9	X10	Y10	Z10	X11	Y11	Z11	X12	Y12	Z12	X13	Y13	Z13	X14	Y14	Z14	X15	Y15	Z15	X16	Y16	Z16	X17	Y17	Z17	X18	Y18	Z18	X19	Y19	Z19	X20	Y20	Z20	X21	Y21	Z21	X22	Y22	Z22	X23	Y23	Z23	X24	Y24	Z24	X25	Y25	Z25	X26	Y26	Z26	X27	Y27	Z27	X28	Y28	Z28	X29	Y29	Z29	X30	Y30	Z30	X31	Y31	Z31	X32	Y32	Z32	X33	Y33	Z33	X34	Y34	Z34	X35	Y35	Z35	X36	Y36	Z36	X37	Y37	Z37	X38	Y38	Z38	X39	Y39	Z39	X40	Y40	Z40	X41	Y41	Z41	X42	Y42	Z42	X43	Y43	Z43	
251	1.2550	-0.308646	1.455447	-0.479376	-0.244484	1.421173	-0.687079	-0.206334	1.409552	-0.294228	-0.174102	1.370449	-0.494530	-0.142145	0.947331	-0.359701	-0.164063	0.952445	-0.616309	-0.236471	0.995034	-0.315862	-0.254385	0.983437	-0.644291	-0.334826	0.972358	-0.420471	-0.343583	0.963868	-0.519507	-0.342708	0.963788	-0.468238	-0.168027	0.680565	-0.271495	-0.147012	0.624034	-0.271186	-0.085758	0.642728	-0.281594	-0.098707	0.702912	-0.282633	-0.109841	0.440977	-0.277868	-0.103588	0.410430	-0.386882	-0.236154	0.295851	-0.254199	-0.258637	0.260788	-0.263983	-0.187988	0.271112	-0.253616	-0.204354	0.234402	-0.256926	-0.318148	0.094878	-0.272018	-0.281726	0.088758	-0.353212	-0.370886	0.076612	-0.325028	-0.221792	0.034813	-0.224575	-0.165459	0.046324	-0.299363	-0.141103	0.038084	-0.298913	-0.211331	0.684005	-0.685865	-0.190069	0.626704	-0.692413	-0.128139	0.644207	-0.702417	-0.142325	0.702338	-0.697909	-0.145570	0.439962	-0.697235	-0.123451	0.415251	-0.587746	-0.268743	0.287348	-0.694166	-0.288133	0.253510	-0.683699	-0.233741	0.225507	-0.691818	-0.220150	0.265868	-0.703552	-0.340322	0.093202	-0.670399	-0.303781	0.102880	-0.591348	-0.392069	0.086143	-0.611905	-0.252565	0.035599	-0.721627	-0.191015	0.045954	-0.652912	-0.165674	0.038813	-0.664058	
252	1.2600	-0.309362	1.458900	-0.479456	-0.245295	1.425353	-0.686978	-0.207037	1.414183	-0.294458	-0.174651	1.374701	-0.494586	-0.141345	0.951380	-0.360149	-0.163106	0.956495	-0.616341	-0.234904	0.999746	-0.316214	-0.253201	0.987924	-0.644215	-0.333747	0.976563	-0.420465	-0.342479	0.968075	-0.519829	-0.341744	0.967866	-0.468388	-0.168264	0.684170	-0.271475	-0.147612	0.627473	-0.271119	-0.086347	0.645743	-0.281973	-0.098834	0.706023	-0.283036	-0.112208	0.444037	-0.277600	-0.105629	0.413322	-0.386702	-0.237579	0.298177	-0.253959	-0.259740	0.262861	-0.263670	-0.189213	0.273705	-0.253282	-0.205363	0.236825	-0.256669	-0.318106	0.096263	-0.271693	-0.281444	0.090539	-0.352798	-0.370546	0.078312	-0.324713	-0.221795	0.034903	-0.224860	-0.165338	0.046366	-0.299230	-0.141055	0.038123	-0.298868	-0.210671	0.687714	-0.685898	-0.189717	0.630243	-0.692163	-0.127555	0.647322	-0.701534	-0.141397	0.705534	-0.697174	-0.146725	0.442960	-0.696496	-0.125296	0.418367	-0.586722	-0.269353	0.289671	-0.693975	-0.288583	0.255716	-0.683580	-0.234066	0.227974	-0.691724	-0.220649	0.268425	-0.703341	-0.340031	0.095012	-0.670907	-0.303511	0.104776	-0.591852	-0.391656	0.088221	-0.612512	-0.252449	0.035663	-0.721414	-0.190937	0.045920	-0.652847	-0.165675	0.038806	-0.663960	
253	1.2650	-0.310064	1.462329	-0.479535	-0.246097	1.429477	-0.686853	-0.207760	1.418783	-0.294701	-0.175198	1.378927	-0.494635	-0.140590	0.955424	-0.360570	-0.162210	0.960586	-0.616300	-0.233424	1.004401	-0.316575	-0.252050	0.992459	-0.644085	-0.332681	0.980790	-0.420429	-0.341407	0.972274	-0.520141	-0.340817	0.971989	-0.468526	-0.168524	0.687801	-0.271478	-0.148263	0.630949	-0.271086	-0.086965	0.648778	-0.282334	-0.099004	0.709161	-0.283427	-0.114359	0.447416	-0.277492	-0.107647	0.416273	-0.386599	-0.238927	0.300555	-0.253710	-0.260788	0.265051	-0.263367	-0.190442	0.276412	-0.252800	-0.206283	0.239295	-0.256411	-0.318048	0.097728	-0.271295	-0.281134	0.092384	-0.352345	-0.370179	0.080120	-0.324338	-0.221780	0.035005	-0.225124	-0.165244	0.046422	-0.299097	-0.141005	0.038163	-0.298812	-0.209940	0.691426	-0.685922	-0.189294	0.633795	-0.691952	-0.126912	0.650468	-0.700649	-0.140414	0.708760	-0.696423	-0.147737	0.445993	-0.695805	-0.127000	0.421454	-0.585769	-0.269875	0.292068	-0.693852	-0.288951	0.257994	-0.683531	-0.234315	0.230500	-0.691688	-0.221062	0.271037	-0.703182	-0.339681	0.096903	-0.671495	-0.303200	0.106718	-0.592428	-0.391202	0.090388	-0.613202	-0.252283	0.035750	-0.721214	-0.190868	0.045897	-0.652790	-0.165675	0.038796	-0.663859	
254	1.2700	-0.310750	1.465732	-0.479611	-0.246881	1.433538	-0.686710	-0.208499	1.423302	-0.294959	-0.175745	1.383093	-0.494680	-0.139901	0.959419	-0.360968	-0.161371	0.964698	-0.616181	-0.232058	1.008978	-0.316941	-0.250929	0.997009	-0.643910	-0.331671	0.985023	-0.420390	-0.340364	0.976447	-0.520422	-0.339931	0.976131	-0.468655	-0.168824	0.691431	-0.271515	-0.148970	0.634429	-0.271097	-0.087619	0.651839	-0.282674	-0.099215	0.712306	-0.283790	-0.116505	0.450576	-0.277477	-0.109645	0.419303	-0.386528	-0.240146	0.302955	-0.253435	-0.261746	0.267272	-0.263029	-0.191652	0.279211	-0.252185	-0.207130	0.241833	-0.256175	-0.318004	0.099338	-0.270888	-0.280777	0.094271	-0.351857	-0.369781	0.082007	-0.323904	-0.221745	0.035128	-0.225371	-0.165180	0.046484	-0.298964	-0.140950	0.038194	-0.298740	-0.209164	0.695111	-0.685934	-0.188810	0.637332	-0.691765	-0.126225	0.653617	-0.699771	-0.139399	0.711994	-0.695665	-0.148618	0.449044	-0.695153	-0.128565	0.424487	-0.584892	-0.270308	0.294536	-0.693789	-0.289240	0.260332	-0.683547	-0.234499	0.233072	-0.691714	-0.221391	0.273696	-0.703084	-0.339260	0.098854	-0.672163	-0.302845	0.108689	-0.593084	-0.390700	0.092643	-0.613977	-0.252076	0.035858	-0.721020	-0.190811	0.045889	-0.652751	-0.165672	0.038784	-0.663761	
255	1.2750	-0.311414	1.469089	-0.479689	-0.247644	1.437504	-0.686558	-0.209248	1.427743	-0.295234	-0.176282	1.387182	-0.494715	-0.139275	0.963357	-0.361341	-0.160582	0.968798	-0.615979	-0.230800	1.013463	-0.317304	-0.249838	1.001531	-0.643696	-0.330708	0.989244	-0.420334	-0.339361	0.980569	-0.520687	-0.339087	0.980268	-0.468768	-0.169175	0.695026	-0.271587	-0.149728	0.637901	-0.271158	-0.088295	0.654899	-0.282986	-0.099471	0.715436	-0.284119	-0.118484	0.453872	-0.277477	-0.111640	0.422430	-0.386561	-0.241233	0.305371	-0.253154	-0.262635	0.269543	-0.262738	-0.192841	0.282080	-0.251450	-0.207873	0.244379	-0.255963	-0.317883	0.101036	-0.270433	-0.280365	0.096167	-0.351334	-0.369348	0.083963	-0.323411	-0.221677	0.035311	-0.225623	-0.165144	0.046558	-0.298826	-0.140887	0.038221	-0.298662	-0.208356	0.698751	-0.685926	-0.188288	0.640835	-0.691580	-0.125515	0.656750	-0.698903	-0.138376	0.715214	-0.694915	-0.149379	0.452109	-0.694548	-0.129970	0.427468	-0.584081	-0.270655	0.297050	-0.693792	-0.289454	0.262706	-0.683621	-0.234615	0.235670	-0.691800	-0.221633	0.276375	-0.703048	-0.338756	0.100848	-0.672914	-0.302430	0.110664	-0.593810	-0.390160	0.094952	-0.614840	-0.251842	0.035993	-0.720830	-0.190758	0.045901	-0.652728	-0.165665	0.038772	-0.663670	
256	1.2800	-0.312047	1.472381	-0.479772	-0.248357	1.441361	-0.686393	-0.209993	1.432071	-0.295527	-0.176806	1.391183	-0.494743	-0.138709	0.967211	-0.361687	-0.159835	0.972854	-0.615691	-0.229653	1.017823	-0.317648	-0.248781	1.005970	-0.643454	-0.329794	0.993408	-0.420253	-0.338398	0.984627	-0.520932	-0.338286	0.984374	-0.468867	-0.169584	0.698560	-0.271698	-0.150526	0.641313	-0.271270	-0.088986	0.657942	-0.283278	-0.099783	0.718517	-0.284412	-0.120350	0.457078	-0.277575	-0.113586	0.425445	-0.386608	-0.242197	0.307789	-0.252871	-0.263442	0.271817	-0.262477	-0.193894	0.284923	-0.250769	-0.208502	0.246924	-0.255768	-0.317798	0.102719	-0.270108	-0.279897	0.098057	-0.350779	-0.368883	0.085975	-0.322867	-0.221601	0.035524	-0.225860	-0.165128	0.046645	-0.298672	-0.140819	0.038246	-0.298581	-0.207535	0.702317	-0.685890	-0.187750	0.644284	-0.691397	-0.124802	0.659844	-0.698050	-0.137367	0.718398	-0.694184	-0.150046	0.455162	-0.693965	-0.131234	0.430398	-0.583336	-0.270921	0.299578	-0.693864	-0.289594	0.265090	-0.683755	-0.234661	0.238277	-0.691937	-0.221794	0.279038	-0.703064	-0.338171	0.102862	-0.673743	-0.301955	0.112633	-0.594611	-0.389576	0.097300	-0.615787	-0.251585	0.036171	-0.720631	-0.190713	0.045934	-0.652736	-0.165652	0.038760	-0.663594	
257	1.2850	-0.312647	1.475607	-0.479857	-0.249014	1.445092	-0.686227	-0.210717	1.436245	-0.295831	-0.177318	1.395073	-0.494763	-0.138215	0.970965	-0.361999	-0.159122	0.976830	-0.615321	-0.228617	1.022043	-0.317969	-0.247753	1.010297	-0.643197	-0.328909	0.997481	-0.420129	-0.337474	0.988588	-0.521147	-0.337527	0.988426	-0.468958	-0.170044	0.701997	-0.271850	-0.151357	0.644632	-0.271445	-0.089713	0.660907	-0.283548	-0.100152	0.721532	-0.284673	-0.122211	0.460198	-0.277625	-0.115444	0.428391	-0.386793	-0.243043	0.310130	-0.252590	-0.264146	0.274064	-0.262236	-0.194781	0.287689	-0.250203	-0.209033	0.249477	-0.255577	-0.317508	0.104370	-0.269671	-0.279373	0.099917	-0.350192	-0.368392	0.088011	-0.322279	-0.221508	0.035788	-0.226107	-0.165118	0.046742	-0.298494	-0.140744	0.038286	-0.298494	-0.206730	0.705792	-0.685842	-0.187209	0.647651	-0.691206	-0.124102	0.662873	-0.697213	-0.136385	0.721526	-0.693476	-0.150637	0.458173	-0.693402	-0.132371	0.433278	-0.582645	-0.271104	0.302097	-0.694007	-0.289655	0.267455	-0.683951	-0.234637	0.240858	-0.692114	-0.221870	0.281665	-0.703125	-0.337508	0.104859	-0.674645	-0.301421	0.114586	-0.595482	-0.388962	0.099656	-0.616814	-0.251312	0.036413	-0.720427	-0.190676	0.045996	-0.652788	-0.165632	0.038752	-0.663546	
258	1.2900	-0.313208	1.478744	-0.479946	-0.249613	1.448690	-0.686066	-0.211413	1.440257	-0.296140	-0.177818	1.398830	-0.494776	-0.137788	0.974614	-0.362270	-0.158433	0.980702	-0.614876	-0.227702	1.026104	-0.318259	-0.246758	1.014494	-0.642937	-0.328117	1.001478	-0.420034	-0.336594	0.992458	-0.521356	-0.336815	0.992404	-0.469046	-0.170562	0.705302	-0.272046	-0.152219	0.647833	-0.271670	-0.090462	0.663785	-0.283801	-0.100570	0.724453	-0.284900	-0.124942	0.463784	-0.276708	-0.117211	0.431377	-0.387039	-0.243780	0.312431	-0.252319	-0.264733	0.276217	-0.261984	-0.195502	0.290365	-0.249749	-0.209464	0.251987	-0.255391	-0.317122	0.106066	-0.269259	-0.278807	0.101721	-0.349579	-0.367886	0.090042	-0.321657	-0.221395	0.036102	-0.226368	-0.165093	0.046859	-0.298281	-0.140667	0.038348	-0.298396	-0.205949	0.709154	-0.685774	-0.186679	0.650919	-0.690996	-0.123432	0.665811	-0.696397	-0.135450	0.724560	-0.692801	-0.151180	0.461115	-0.692852	-0.133401	0.436101	-0.581992	-0.271191	0.304550	-0.694197	-0.289634	0.269778	-0.684207	-0.234540	0.243383	-0.692317	-0.221852	0.284223	-0.703210	-0.336777	0.106818	-0.675608	-0.300860	0.116510	-0.596399	-0.388324	0.102000	-0.617908	-0.251033	0.036725	-0.720207	-0.190636	0.046090	-0.652888	-0.165606	0.038757	-0.663533	
259	1.2950	-0.313728	1.481770	-0.480042	-0.250147	1.452132	-0.685913	-0.212082	1.444105	-0.296444	-0.178305	1.402440	-0.494783	-0.137417	0.978167	-0.362489	-0.157768	0.984447	-0.614366	-0.226906	1.029990	-0.318513	-0.245804	1.018532	-0.642683	-0.327382	1.005356	-0.419937	-0.335748	0.996204	-0.521554	-0.336147	0.996282	-0.469134	-0.171131	0.708455	-0.272283	-0.153099	0.650889	-0.271946	-0.091228	0.666542	-0.284039	-0.101032	0.727252	-0.285097	-0.125466	0.466132	-0.277959	-0.118807	0.434233	-0.387254	-0.244420	0.314670	-0.252086	-0.265226	0.278317	-0.261792	-0.196051	0.292908	-0.249436	-0.209786	0.254414	-0.255211	-0.316628	0.107730	-0.268853	-0.278228	0.103460	-0.348953	-0.367377	0.092034	-0.321021	-0.221257	0.036483	-0.226674	-0.165042	0.047002	-0.298017	-0.140597	0.038444	-0.298268	-0.205210	0.712384	-0.685678	-0.186188	0.654060	-0.690760	-0.122810	0.668636	-0.695601	-0.134578	0.727487	-0.692163	-0.151682	0.463972	-0.692313	-0.134347	0.438853	-0.581360	-0.271189	0.306898	-0.694436	-0.289531	0.272025	-0.684522	-0.234361	0.245823	-0.692533	-0.221737	0.286690	-0.703306	-0.336001	0.108716	-0.676615	-0.300293	0.118407	-0.597355	-0.387682	0.104286	-0.619062	-0.250737	0.037125	-0.719966	-0.190590	0.046216	-0.653039	-0.165575	0.038782	-0.663565	
